<svg xmlns="http://www.w3.org/2000/svg" width="1361" height="609"><g fill="none" fill-rule="evenodd"><g opacity=".8" transform="rotate(-7 4291 279)"><circle cx="63.6" cy="32.5" r="21.8" fill="#CFDAE6" opacity=".3"/><circle cx="6" cy="13.9" r="5.2" fill="#CFDAE6" opacity=".6"/><path fill="#CFDAE6" d="M38 88a10 10 0 1 0 0-21 10 10 0 0 0 0 21Z" opacity=".5"/><path stroke="#CFDAE6" stroke-linecap="round" stroke-linejoin="round" stroke-width="1.7" d="m64 33 55-16"/><path stroke="#E0B4B7" stroke-dasharray="1.405357899873153,2.108036953469981" stroke-linecap="round" stroke-linejoin="round" stroke-width=".7" d="M42 27 8 15" opacity=".7"/><path stroke="#BACAD9" stroke-dasharray="1.405357899873153,2.108036953469981" stroke-linecap="round" stroke-linejoin="round" stroke-width=".7" d="M64 34 44 69"/><g fill="#CFDAE6" transform="rotate(30 60 230)"><circle cx="9.1" cy="9.1" r="9.1" opacity=".5"/><path d="M0 9a9 9 0 0 0 18 0H0Z"/></g></g><g transform="rotate(-5 462 -1093)"><circle cx="29.1" cy="29.1" r="29.1" fill="#CFDAE6" opacity=".3"/><circle cx="29.1" cy="29.1" r="21.6" fill="#CFDAE6" opacity=".3"/><circle cx="179" cy="138.1" r="23.7" stroke="#CFDAE6" opacity=".4"/><circle cx="29.1" cy="29.1" r="10.8" fill="#BACAD9" opacity=".5"/><path fill="#BACAD9" d="M29 40V18a11 11 0 0 0 0 22Z"/><g fill="#E6A1A6" opacity=".5" transform="translate(172 131)"><circle cx="7" cy="7.1" r="6.5"/><path d="M7 14A6 6 0 0 1 7 1v13Z"/></g><circle cx="218.4" cy="138.7" r="1.6" fill="#CFDAE6"/><circle cx="179.6" cy="175.4" r="1.6" fill="#E0B4B7" opacity=".3"/><circle cx="180.1" cy="102.5" r="2.2" fill="#E0B4B7" opacity=".3"/><path stroke="#CFDAE6" d="m29 30 142 103" opacity=".8"/></g><g opacity=".8" transform="rotate(-11 517 -5291)"><ellipse cx="43.8" cy="32" stroke="#CFDAE6" stroke-width=".9" rx="11.2" ry="11.3"/><g fill="#BACAD9" transform="translate(35 23)"><ellipse cx="9.2" cy="8.9" opacity=".5" rx="8.5" ry="8.6"/><path d="M9 17c5 0 9-3 9-8s-4-9-9-9v17Z"/></g><path stroke="#CFDAE6" stroke-width=".9" d="M35 25 6 5"/><circle cx="3.3" cy="3.3" r="3.3" stroke="#CFDAE6" stroke-width=".9"/><circle cx="2.8" cy="61.2" r="2.8" fill="#F7E1AD"/><path stroke="#CFDAE6" stroke-width=".9" d="M35 39 5 60"/></g><g opacity=".3" transform="rotate(-10 2531 -6240)"><g fill="#BACAD9" transform="rotate(-85 127 -12)"><circle cx="11.7" cy="11.7" r="11.7" opacity=".5"/><path d="M0 12a12 12 0 0 0 23 0H0Z"/></g><circle cx="201.8" cy="87.5" r="5.8" fill="#CFDAE6"/><path stroke="#BACAD9" stroke-width="1.2" d="m144 89 11-71M18 37l109 61"/><path stroke="#CFDAE6" stroke-width="1.2" d="m144 120 31 112-136-84 87-37"/><path stroke="#E0B4B7" stroke-width="1.2" d="m160 100 35-11" opacity=".6"/><path stroke="#BACAD9" stroke-width="1.2" d="m205 82 34-46"/><path stroke="#CFDAE6" stroke-width="1.2" d="m267 132-60-42"/><circle cx="156.9" cy="8.8" r="8.8" fill="#C1D1E0"/><circle cx="39.1" cy="148.8" r="5.3" fill="#C1D1E0"/><circle cx="8.8" cy="33.3" r="8.8" fill="#D1DEED" fill-opacity=".6"/><circle cx="243.8" cy="30.3" r="5.8" fill="#D1DEED" fill-opacity=".6"/><circle cx="175.6" cy="232.8" r="5.3" fill="#E0B4B7"/></g></g></svg>