<svg xmlns="http://www.w3.org/2000/svg" viewBox="0 0 153.7 38"><defs><style>.cls-1{fill:#409eff;fill-rule:evenodd}</style></defs><g><g><path id="Shape-Copy" d="M142 26h1a1 1 0 0 1 1 1l1 2h-4a5 5 0 0 1-4-4v-7h-3v-3h3v-3l2-1h1v4h4v3h-4v6c0 2 2 2 2 2Zm-11 3h-2V18h-6v11h-3V16l1-1h10l1 1v13h-1Zm-15-6h-9v2l1 1h7a1 1 0 0 1 1 1l1 2h-11l-2-1V16l1-1h11l1 1v6l-1 1Zm-2-5h-7v2a1 1 0 0 0 1 1h6a1 1 0 0 0 0-1v-2Zm-13 11h-2V18h-4v11h-3V18h-4v11h-3V16l2-1h13l2 1v13h-1Zm-20-6h-8v2l1 1h7a1 1 0 0 1 1 1v2c0 1 0 0 0 0H72l-2-1V16l1-1h10l2 1v6l-2 1Zm-1-5h-7v2a1 1 0 0 0 0 1h6a1 1 0 0 0 1-1v-2ZM68 29h-5a4 4 0 0 1-4-4V9h2a1 1 0 0 1 1 1v14a3 3 0 0 0 2 2h2l1 1 1 2Zm-27-1V10a1 1 0 0 1 1-1h13v3a1 1 0 0 1-1 0h-8a1 1 0 0 0-1 1v4h9l1 1-1 2a1 1 0 0 1-1 0h-8v5a1 1 0 0 0 0 1h9a1 1 0 0 1 1 1l1 1v1H42l-1-1Zm-8-1-1 2-15 9a2 2 0 0 1-1 0L1 29a1 1 0 0 1-1-1V10l1-1 15-9a2 2 0 0 1 2 0s13 8 14 9a2 2 0 0 1 1 2v16Zm-6-17L17 4a2 2 0 0 0-1 0L4 11l-1 1v14a1 1 0 0 0 1 1l12 7a1 1 0 0 0 1 0l12-7 1-2v-3l-13 8v-3a3 3 0 0 1 1-2l11-7a2 2 0 0 0 1-2v-3l-13 8v-3a2 2 0 0 1 0-2Z" class="cls-1"/><path d="M150 11h-2V6h2Z" class="cls-1"/><path d="M148 9h2v5l-1 1-1-1Z" class="cls-1"/><path d="M145 9h9v2h-9V9Z" style="fill:#409eff"/></g></g></svg>