<svg xmlns="http://www.w3.org/2000/svg" width="252" height="294"><g fill="none" fill-rule="evenodd"><path fill="#E4EBF7" d="M0 127v-2C0 56 56 0 125 0h2c69 0 125 56 125 125v2c0 69-56 125-125 125h-2C56 252 0 196 0 127" mask="url(#b)"/><path fill="#FFF" d="M40 131a8 8 0 1 1-17-2 8 8 0 0 1 17 2"/><path stroke="#FFF" stroke-width="2" d="m37 134 10 6m1 7-12 10"/><path fill="#FFF" d="M40 159a6 6 0 1 1-11-1 6 6 0 0 1 11 1m18-16a6 6 0 1 1-12-1 6 6 0 0 1 12 1M99 27h30a5 5 0 1 0 0-9H99a5 5 0 1 0 0 9m11 18h30a5 5 0 0 0 0-9h-30a5 5 0 1 0 0 9"/><path fill="#FFF" d="M113 27h16a5 5 0 1 0 0 9h-16a5 5 0 0 0 0-9m72 109a10 10 0 1 1-20-2 10 10 0 0 1 20 2"/><path stroke="#FFF" stroke-width="2" d="m179 142 13 7m1 7-15 13"/><path fill="#FFF" d="M185 170a7 7 0 1 1-14-1 7 7 0 0 1 14 1m18-17a7 7 0 1 1-13-1 7 7 0 0 1 13 1"/><path stroke="#FFF" stroke-width="2" d="M152 192a2 2 0 1 1-5 0 2 2 0 0 1 5 0zm73-76a2 2 0 1 1-4 0 2 2 0 0 1 4 0zm-9 35a2 2 0 1 1-4 0 2 2 0 0 1 4 0zm-39-43a2 2 0 1 1-5 0 2 2 0 0 1 5 0zm18-16a2 2 0 1 1-4 0 2 2 0 0 1 4 0zm7 89a2 2 0 1 1-4 0 2 2 0 0 1 4 0z"/><path stroke="#FFF" stroke-width="2" d="m214 153-2 20-10 6m-28-4-7 10h-11l-5 6m24-66v-16m46 8-13 8-15-8V94"/><path fill="#FFF" d="M167 66h-4a5 5 0 0 1-5-5 5 5 0 0 1 5-5h4a5 5 0 0 1 4 5 5 5 0 0 1-4 5"/><path fill="#1677ff" d="M175 30a29 29 0 1 1 59 0 29 29 0 0 1-59 0"/><path fill="#FFF" d="m206 38 1 2-1 2-2 1-2-1-1-2 1-2h4m4-19c2 1 2 3 2 5a7 7 0 0 1-1 5l-3 2a5 5 0 0 0-1 2 5 5 0 0 0-1 2v1h-4v-1l1-3c0-1 1-3 4-5l1-3-1-2-3-1-3 1-1 2a2 2 0 0 1-2 1l-2-2 2-4 7-2 5 2"/><path fill="#FFB594" d="M52 76s22 5 27 16c6 11-6 9-15 5-11-5-25-12-12-21"/><path fill="#FFC6A0" d="M90 68v2c-1 1-5-2-5-2h-1l-2-5 9-5c3-1 10 1 11 2 0 0 1 1-2 1-4 0-5 0-7 3l-3 4"/><path fill="#FFF" d="M128 111c-3-7-6-13-9-15-3-3-9-2-11-4-1-2-3-1-3-1l-17-4-6-1-3-2-7-1-3-1-2-1c-2 10-8 14-8 14l16 8 5 37s-3 6 1 10c0 0 20-4 35-1 0 0 3-2 1-9l2-11 3 3s9-7 11-14l-2-2-1-3-2-2"/><path fill="#CBD1D1" d="M101 290s4 2 7 1 5 1 8 1c2 1 6 1 11-1 0-6-7-4-12-7-2-1-4-4-3-9h-10l-1 15"/><path fill="#2B0849" d="M101 290s2 1 7 0l7 2 12-1v2l-5 1-8-1c-1-1-5-2-5 0-4 1-8-1-8-1v-2z"/><path fill="#A4AABA" d="M108 276h3s0 7 5 9c-5 0-9-3-8-9"/><path fill="#CBD1D1" d="m58 272-5 13c-2 3-4 7 6 7 6 0 8 0 7-6-2-7 0-14 0-14h-8z"/><path fill="#2B0849" d="m51 290 7 1c6 0 8-2 8-2v2l-8 2-6-1-1-2"/><path fill="#A4AABA" d="M58 274v3l-1 4c0 2 5 2 5 0l2-7c1-1-5-2-6 0"/><path fill="#7BB2F9" d="M100 279h13l2-65c0-10 4-43 1-63l-13-1-23 1-1 10v4l-9 46-1 3v2c-7 18-11 48-14 62h14l4-17 23-85 3-1 1 46 1 2-1 3 1 1-1 12v40"/><path stroke="#648BD8" stroke-linecap="round" stroke-linejoin="round" stroke-width="1.1" d="m76 222 7-5m23 8 6-4"/><path stroke="#648BD8" stroke-linecap="round" stroke-linejoin="round" d="m107 222 6-4"/><path stroke="#648BD8" stroke-linecap="round" stroke-linejoin="round" stroke-width="1.1" d="m75 225 6-4m5-69c0 3 0 8-4 9m22-11s0 14-2 15l-3 2m1-17-1 25m-5 1 9-2m-29 32a212 212 0 0 1-1 4l-1 4c1 2-1 2-5 16l-6 27v1m15-60a321 321 0 0 1-1 5m8-51-2 11s-1 0 0 2l-5 30m-20 79h13"/><path fill="#192064" d="M116 148s-17-3-36 0v5s15-3 36-1v-4"/><path fill="#FFF" d="M106 151v-5a1 1 0 0 0 0-1h-8a1 1 0 0 0-1 1v5a1 1 0 0 0 1 1h7a1 1 0 0 0 1-1"/><path fill="#192064" d="M105 150v-3a94 94 0 0 0-6 0 1 1 0 0 0-1 0v3a1 1 0 0 0 1 1 121 121 0 0 1 6 0v-1"/><path stroke="#648BD8" stroke-linecap="round" stroke-linejoin="round" stroke-width="1.1" d="M100 275h13m-12-4 1 6m-1-12a916 916 0 0 0 0 4m0-94 1 45v2c-1 1 2 1 1 3-2 1 0 1 0 3l-2 35"/><path fill="#FFC6A0" d="M47 83s-1 6 7 6c11-1 9-9 32-22l-3-4-22 8c-7 3-14 6-14 12m57 8 1-5-8-12-6 6-1 7v1c1 1 6 5 14 3"/><path fill="#FFC6A0" d="M94 79s-5-2-2-6c1-4 4 1 4 1s1-4 3-4l2-4 13 3c0 5-2 19-8 20-9 1-12-10-12-10"/><path fill="#520038" d="M114 73c2-2 3-9 3-9l-6-2c-5-2-13-5-18 1-9 3-2 19-2 19l3-3s-4-3-2-6 4 1 4 1 0-2 3-3l2-4a1 1 0 0 1 1-1 2376 2376 0 0 1 12 4v3z"/><path fill="#552950" d="m105 76-1 1-1-1 1-1 1 1m7 2-1 1-1-2 1-1 1 2"/><path stroke="#DB836E" stroke-linecap="round" stroke-linejoin="round" stroke-width="1.1" d="m110 75-1 1v5h-2"/><path stroke="#5C2552" stroke-linecap="round" stroke-linejoin="round" stroke-width="1.1" d="M111 74s2 0 2 1"/><path stroke="#DB836E" stroke-linecap="round" stroke-linejoin="round" stroke-width="1.1" d="M92 74h1c1 0 2 1 1 2v1"/><path stroke="#5C2552" stroke-linecap="round" stroke-linejoin="round" stroke-width="1.1" d="m103 73 4 1"/><path stroke="#DB836E" stroke-linecap="round" stroke-linejoin="round" stroke-width="1.1" d="m104 82 4 1m-3 1 1 1m-11-4s2 8 10 8"/><path stroke="#E4EBF7" stroke-linecap="round" stroke-linejoin="round" stroke-width="1.1" d="M81 89s1 6-4 13m-8-19s-1 9-8 14M129 123l-9 11M119 107l-2 32"/><path fill="#F2D7AD" d="M150 151h-50a1 1 0 0 1-1-1v-31l1-1h50l1 1v31a1 1 0 0 1-1 1"/><path fill="#F4D19D" d="M150 151h-20v-33h21v32a1 1 0 0 1-1 1"/><path fill="#F2D7AD" d="M124 128H93a1 1 0 0 1-1-1l7-9h32l-7 10z"/><path fill="#CC9B6E" d="M124 128H99h24l8-10z"/><path fill="#F4D19D" d="M158 128h-18a2 2 0 0 1-2-1l-7-9h21l7 9a1 1 0 0 1-1 1"/><path fill="#CC9B6E" d="M158 128h-20l-7-10 8 10h19zm-27 23v-8 8zM131 140l-1-22h1v22zm-19 1h-1l2-5zm-4 0-2-3 2-3h1l-3 3 3 3zm9 0h-1l3-3-3-3h1l2 3z"/><path fill="#FFC6A0" d="m154 132-3-2v3l-1 1h-5c-1 0-2 2 3 2h-3s-2 1 0 2c0 0-1 1 1 3-1 3 5 4 7 3 2 0 4-2 5-5 0-3-1-5-4-7"/><path stroke="#DB836E" stroke-linecap="round" stroke-linejoin="round" stroke-width="1.1" d="M154 134h-9c-2 0-2 2 3 2h5M145 136c-2 1 1 2 1 2l6 1M152 142s-6 0-7-2l1-2m0 3s-1 3 6 3m-1-14v3M53 89c3 0 8-1 13-7"/><path fill="#5BA02E" d="M169 248a7 7 0 0 1-7-6v-67a7 7 0 1 1 13 0v67a7 7 0 0 1-6 6"/><path fill="#92C110" d="M177 248a7 7 0 0 1-7-7v-33a7 7 0 1 1 13 0v33a7 7 0 0 1-6 7"/><path fill="#F2D7AD" d="M186 294h-27a3 3 0 0 1-3-4v-46a3 3 0 0 1 3-3h27a3 3 0 0 1 4 3v46a3 3 0 0 1-4 4"/><path stroke="#E4EBF7" stroke-linecap="round" stroke-linejoin="round" stroke-width="1.1" d="M89 89s8 6 17 3"/></g></svg>